<svg width="121" height="29" viewBox="0 0 121 29" fill="none" xmlns="http://www.w3.org/2000/svg">
<path d="M48.1684 27.9336V19.5336H53.9404V20.5296H49.2964V23.2296H53.4724V24.2256H49.2964V27.9336H48.1684Z" fill="#1a1a1a"/>
<path d="M57.7183 28.1016C55.8943 28.1016 54.4423 26.8416 54.4423 24.6336C54.4423 22.4136 55.8943 21.1656 57.7183 21.1656C59.5424 21.1656 60.9944 22.4136 60.9944 24.6336C60.9944 26.8416 59.5424 28.1016 57.7183 28.1016ZM57.7183 27.1656C58.9184 27.1536 59.8663 26.3016 59.8663 24.6336C59.8663 22.9536 58.9184 22.1136 57.7183 22.1016C56.5183 22.0896 55.5704 22.9536 55.5704 24.6336C55.5704 26.3016 56.5183 27.1776 57.7183 27.1656Z" fill="#1a1a1a"/>
<path d="M62.2826 27.9336V21.3336H63.3386V22.4856H63.3626C63.6746 21.8496 64.2746 21.1656 65.3306 21.1656H65.9666V22.1016H65.1866C64.0826 22.1016 63.3626 22.8336 63.3626 24.2136V27.9336H62.2826Z" fill="#1a1a1a"/>
<path d="M75.0606 23.4216C76.0086 23.7216 76.6806 24.4056 76.6806 25.4496C76.6806 27.0576 75.4206 27.9336 73.9086 27.9336H70.1406V19.5336H73.6686C74.9766 19.5336 76.0806 20.3256 76.0806 21.7656C76.0806 22.5336 75.6726 23.0976 75.0606 23.4216ZM73.4166 20.5296H71.2566V23.0016H73.4166C74.3046 23.0016 74.9166 22.5096 74.9166 21.7656C74.9166 21.0336 74.3046 20.5296 73.4166 20.5296ZM73.6566 26.9376C74.7486 26.9376 75.5166 26.3496 75.5166 25.4496C75.5166 24.5496 74.7486 23.9976 73.6566 23.9976H71.2566V26.9376H73.6566Z" fill="#1a1a1a"/>
<path d="M80.1778 28.1016C78.7859 28.1016 77.9339 27.0816 77.9339 25.4976V21.3336H79.0139V25.3896C79.0139 26.6136 79.6139 27.1416 80.4418 27.1416C81.4018 27.1416 82.2299 26.4216 82.2299 25.0536V21.3336H83.3099V27.9336H82.2539V26.7816H82.2299C81.9059 27.4176 81.2699 28.1016 80.1778 28.1016Z" fill="#1a1a1a"/>
<path d="M87.297 28.1016C85.773 28.1016 84.681 27.1056 84.597 25.7496H85.725C85.797 26.5776 86.421 27.1656 87.297 27.1656C88.269 27.1656 88.869 26.6256 88.869 26.0136C88.869 25.3056 88.497 24.9816 87.297 24.9816H86.853C85.653 24.9816 84.717 24.3336 84.717 23.1936C84.717 22.1616 85.593 21.1656 87.297 21.1656C88.857 21.1656 89.781 22.1256 89.877 23.4696H88.749C88.677 22.5936 88.173 22.1016 87.297 22.1016C86.349 22.1016 85.845 22.5576 85.845 23.1936C85.845 23.7936 86.157 24.0336 87.297 24.0456H87.621C89.121 24.0456 89.997 24.8256 89.997 26.0136C89.997 27.0456 89.061 28.1016 87.297 28.1016Z" fill="#1a1a1a"/>
<path d="M91.2411 20.2176V19.0896H92.3691V20.2176H91.2411ZM91.2651 27.9336V21.3336H92.3451V27.9336H91.2651Z" fill="#1a1a1a"/>
<path d="M94.0104 27.9336V21.3336H95.0664V22.4856H95.0904C95.4264 21.8496 96.0744 21.1656 97.2024 21.1656C98.6304 21.1656 99.5064 22.1856 99.5064 23.7696V27.9336H98.4264V23.8776C98.4264 22.6536 97.8024 22.1256 96.9384 22.1256C95.9424 22.1256 95.0904 22.8456 95.0904 24.2136V27.9336H94.0104Z" fill="#1a1a1a"/>
<path d="M107.03 24.1296V24.9936H101.87C102.002 26.3496 102.818 27.1656 103.946 27.1656C104.834 27.1656 105.542 26.6616 105.806 25.9056H106.97C106.694 27.1776 105.518 28.1016 103.946 28.1016C102.026 28.1016 100.73 26.7216 100.73 24.6336C100.73 22.4616 102.05 21.1656 103.946 21.1656C105.722 21.1656 107.03 22.4376 107.03 24.1296ZM103.946 22.1016C102.794 22.1016 102.014 22.9536 101.882 24.0336H105.938C105.818 22.9056 105.062 22.1016 103.946 22.1016Z" fill="#1a1a1a"/>
<path d="M110.617 28.1016C109.093 28.1016 108.001 27.1056 107.917 25.7496H109.045C109.117 26.5776 109.741 27.1656 110.617 27.1656C111.589 27.1656 112.189 26.6256 112.189 26.0136C112.189 25.3056 111.817 24.9816 110.617 24.9816H110.173C108.973 24.9816 108.037 24.3336 108.037 23.1936C108.037 22.1616 108.913 21.1656 110.617 21.1656C112.177 21.1656 113.101 22.1256 113.197 23.4696H112.069C111.997 22.5936 111.493 22.1016 110.617 22.1016C109.669 22.1016 109.165 22.5576 109.165 23.1936C109.165 23.7936 109.477 24.0336 110.617 24.0456H110.941C112.441 24.0456 113.317 24.8256 113.317 26.0136C113.317 27.0456 112.381 28.1016 110.617 28.1016Z" fill="#1a1a1a"/>
<path d="M116.901 28.1016C115.377 28.1016 114.285 27.1056 114.201 25.7496H115.329C115.401 26.5776 116.025 27.1656 116.901 27.1656C117.873 27.1656 118.473 26.6256 118.473 26.0136C118.473 25.3056 118.101 24.9816 116.901 24.9816H116.457C115.257 24.9816 114.321 24.3336 114.321 23.1936C114.321 22.1616 115.197 21.1656 116.901 21.1656C118.461 21.1656 119.385 22.1256 119.481 23.4696H118.353C118.281 22.5936 117.777 22.1016 116.901 22.1016C115.953 22.1016 115.449 22.5576 115.449 23.1936C115.449 23.7936 115.761 24.0336 116.901 24.0456H117.225C118.725 24.0456 119.601 24.8256 119.601 26.0136C119.601 27.0456 118.665 28.1016 116.901 28.1016Z" fill="#1a1a1a"/>
<path d="M35.3208 10.3628C35.3317 10.0106 35.2717 9.65986 35.1445 9.33133C35.0173 9.0028 34.8254 8.70317 34.5802 8.45022C34.3349 8.19728 34.0414 7.99618 33.717 7.85885C33.3927 7.72151 33.044 7.65074 32.6917 7.65074C32.3395 7.65074 31.9908 7.72151 31.6664 7.85885C31.342 7.99618 31.0485 8.19728 30.8033 8.45022C30.5581 8.70317 30.3662 9.0028 30.239 9.33133C30.1117 9.65986 30.0518 10.0106 30.0627 10.3628C30.0518 10.7149 30.1117 11.0656 30.239 11.3942C30.3662 11.7227 30.5581 12.0223 30.8033 12.2753C31.0485 12.5282 31.342 12.7293 31.6664 12.8667C31.9908 13.004 32.3395 13.0748 32.6917 13.0748C33.044 13.0748 33.3927 13.004 33.717 12.8667C34.0414 12.7293 34.3349 12.5282 34.5802 12.2753C34.8254 12.0223 35.0173 11.7227 35.1445 11.3942C35.2717 11.0656 35.3317 10.7149 35.3208 10.3628ZM32.6704 15.0143C32.0507 15.0287 31.4344 14.9191 30.8577 14.6918C30.281 14.4646 29.7556 14.1244 29.3122 13.6911C28.8689 13.2579 28.5166 12.7404 28.276 12.169C28.0355 11.5976 27.9116 10.984 27.9116 10.364C27.9116 9.74407 28.0355 9.13039 28.276 8.55902C28.5166 7.98766 28.8689 7.47015 29.3122 7.0369C29.7556 6.60366 30.281 6.26343 30.8577 6.0362C31.4344 5.80897 32.0507 5.69934 32.6704 5.71374H37.281V15.0143H32.6704Z" fill="#1a1a1a"/>
<path d="M47.6711 7.04675L41.5847 19.8667H39.3258L41.798 14.7106L38.209 7.06682C38.1444 6.93882 38.1061 6.79916 38.0965 6.6561C38.0868 6.51305 38.106 6.36951 38.1528 6.23399C38.1996 6.09847 38.2731 5.97371 38.369 5.86711C38.4648 5.76051 38.5811 5.67424 38.7109 5.61339C38.8398 5.55082 38.9803 5.51585 39.1234 5.51071C39.2666 5.50557 39.4092 5.53037 39.5422 5.58354C39.6752 5.6367 39.7957 5.71705 39.8958 5.81945C39.996 5.92185 40.0737 6.04404 40.124 6.1782L42.9752 12.2832L45.8263 6.13803C45.8831 6.01245 45.9645 5.89958 46.0658 5.80614C46.167 5.7127 46.286 5.6406 46.4158 5.59414C46.5455 5.54769 46.6832 5.52782 46.8208 5.53573C46.9583 5.54364 47.0928 5.57916 47.2164 5.64018C47.3399 5.70119 47.4499 5.78646 47.5398 5.8909C47.6297 5.99533 47.6976 6.11679 47.7396 6.24804C47.7816 6.37929 47.7967 6.51765 47.784 6.65487C47.7714 6.79209 47.7313 6.92536 47.6661 7.04675" fill="#1a1a1a"/>
<path d="M46.7713 15.0144V13.0062H48.1668C49.482 13.0062 50.1471 12.2782 50.1747 10.9453V0.861511H52.298V11.1536C52.298 13.4003 50.6415 15.0169 48.3776 15.0169L46.7713 15.0144Z" fill="#1a1a1a"/>
<path d="M57.9512 15.0142C55.5844 15.0142 53.8476 13.2344 53.8476 10.8296V5.71366H55.868V10.8898C55.868 11.1819 55.9255 11.4711 56.0373 11.741C56.149 12.0108 56.3128 12.256 56.5193 12.4625C56.7258 12.669 56.9709 12.8329 57.2407 12.9446C57.5105 13.0564 57.7997 13.1139 58.0917 13.1139C58.3837 13.1139 58.6729 13.0564 58.9427 12.9446C59.2125 12.8329 59.4576 12.669 59.6641 12.4625C59.8706 12.256 60.0344 12.0108 60.1462 11.741C60.2579 11.4711 60.3154 11.1819 60.3154 10.8898V5.71366H62.3384V15.0142H57.9512Z" fill="#1a1a1a"/>
<path d="M63.862 15.0142V13.1139H68.0058C68.1293 13.1204 68.2528 13.1017 68.3689 13.0589C68.4849 13.0161 68.591 12.9501 68.6807 12.865C68.7704 12.7798 68.8419 12.6773 68.8907 12.5637C68.9395 12.45 68.9647 12.3276 68.9647 12.2039C68.9647 12.0803 68.9395 11.9579 68.8907 11.8442C68.8419 11.7306 68.7704 11.6281 68.6807 11.5429C68.591 11.4578 68.4849 11.3918 68.3689 11.349C68.2528 11.3062 68.1293 11.2875 68.0058 11.294H66.6455C64.989 11.294 63.7767 10.1217 63.7767 8.50256C63.7767 6.88344 64.989 5.71366 66.6455 5.71366H70.8369V7.61393H66.7308C66.6073 7.60744 66.4838 7.62617 66.3677 7.66897C66.2517 7.71177 66.1456 7.77774 66.0559 7.86288C65.9662 7.94801 65.8947 8.05053 65.8459 8.16417C65.7971 8.27782 65.7719 8.40022 65.7719 8.5239C65.7719 8.64759 65.7971 8.76999 65.8459 8.88363C65.8947 8.99727 65.9662 9.09979 66.0559 9.18493C66.1456 9.27006 66.2517 9.33604 66.3677 9.37884C66.4838 9.42164 66.6073 9.44037 66.7308 9.43388H70.8369V15.0142H63.862Z" fill="#1a1a1a"/>
<path d="M76.4974 13.0236C75.1822 13.0236 74.5146 12.2956 74.4895 10.9627V7.614H77.5189V5.71373H74.4945V2.6035H72.3712V11.151C72.3712 13.3951 74.0302 15.0143 76.2941 15.0143H77.8903V13.006L76.4974 13.0236Z" fill="#1a1a1a"/>
<path d="M23.3906 7.50125C23.9862 7.48155 24.5509 7.23106 24.9652 6.8027C25.3796 6.37433 25.6112 5.80165 25.6112 5.20562C25.6112 4.60959 25.3796 4.0369 24.9652 3.60853C24.5509 3.18017 23.9862 2.92967 23.3906 2.90997H23.3706C23.0628 2.89979 22.7561 2.95164 22.4687 3.06242C22.1813 3.17321 21.9192 3.34066 21.6978 3.55484C21.4765 3.76901 21.3005 4.02553 21.1803 4.30912C21.0601 4.59271 20.9981 4.89759 20.9981 5.20562C20.9981 5.51364 21.0601 5.81851 21.1803 6.10211C21.3005 6.3857 21.4765 6.64221 21.6978 6.85639C21.9192 7.07056 22.1813 7.23802 22.4687 7.34881C22.7561 7.45959 23.0628 7.51144 23.3706 7.50125H23.3906ZM19.0461 15.0321V0.861595H23.5136C24.0931 0.847665 24.6695 0.949791 25.209 1.16196C25.7484 1.37414 26.24 1.69207 26.6547 2.09706C27.0695 2.50205 27.3991 2.98593 27.6242 3.5202C27.8492 4.05448 27.9651 4.62837 27.9651 5.20812C27.9651 5.78787 27.8492 6.36177 27.6242 6.89605C27.3991 7.43033 27.0695 7.91419 26.6547 8.31918C26.24 8.72417 25.7484 9.04211 25.209 9.25428C24.6695 9.46645 24.0931 9.56858 23.5136 9.55465H21.1669V15.0145L19.0461 15.0321Z" fill="#1a1a1a"/>
<path d="M84.8923 11.4747V4.37821C84.8923 3.32641 84.1845 2.59843 83.2358 2.59843C82.2871 2.59843 81.5567 3.32641 81.5567 4.37821V15.0142H79.4459V4.48866C79.4297 3.98423 79.5167 3.4818 79.7016 3.01224C79.8866 2.54267 80.1656 2.11588 80.5214 1.75808C80.8773 1.40027 81.3026 1.119 81.7711 0.931554C82.2396 0.744105 82.7414 0.654427 83.2459 0.668033C85.4093 0.668033 87.0257 2.26456 87.0257 4.48866V11.5877C87.017 11.8122 87.0537 12.0361 87.1336 12.2461C87.2134 12.4561 87.3349 12.6478 87.4906 12.8097C87.6464 12.9716 87.8332 13.1004 88.0398 13.1884C88.2465 13.2764 88.4688 13.3217 88.6935 13.3217C88.9181 13.3217 89.1404 13.2764 89.3471 13.1884C89.5538 13.1004 89.7406 12.9716 89.8963 12.8097C90.0521 12.6478 90.1735 12.4561 90.2534 12.2461C90.3333 12.0361 90.37 11.8122 90.3613 11.5877V0.861321H92.4846V11.4747C92.4592 12.4635 92.0486 13.4032 91.3404 14.0935C90.6322 14.7838 89.6824 15.1702 88.6935 15.1702C87.7046 15.1702 86.7548 14.7838 86.0466 14.0935C85.3384 13.4032 84.9278 12.4635 84.9024 11.4747" fill="#1a1a1a"/>
<path d="M98.9167 13.1943C99.6526 13.1723 100.351 12.8645 100.864 12.3361C101.377 11.8077 101.664 11.1003 101.664 10.3639C101.664 9.62755 101.377 8.92014 100.864 8.39174C100.351 7.86334 99.6526 7.55554 98.9167 7.53361H98.8765C98.1406 7.55554 97.4422 7.86334 96.9294 8.39174C96.4165 8.92014 96.1297 9.62755 96.1297 10.3639C96.1297 11.1003 96.4165 11.8077 96.9294 12.3361C97.4422 12.8645 98.1406 13.1723 98.8765 13.1943H98.9167ZM98.8765 15.215C97.5898 15.215 96.3558 14.7038 95.446 13.7938C94.5361 12.8838 94.025 11.6496 94.025 10.3627C94.025 9.07576 94.5361 7.84155 95.446 6.93156C96.3558 6.02157 97.5898 5.51034 98.8765 5.51034H98.9167C100.203 5.51034 101.437 6.02157 102.347 6.93156C103.257 7.84155 103.768 9.07576 103.768 10.3627C103.768 11.6496 103.257 12.8838 102.347 13.7938C101.437 14.7038 100.203 15.215 98.9167 15.215H98.8765Z" fill="#1a1a1a"/>
<path d="M8.41759 9.97358L10.3903 13.9172C10.4497 14.0328 10.4781 14.1618 10.4729 14.2916C10.4676 14.4214 10.4289 14.5477 10.3604 14.6581C10.2919 14.7685 10.1961 14.8593 10.0821 14.9217C9.9682 14.9841 9.84006 15.016 9.71016 15.0142H1.08633C0.886632 15.0142 0.695115 14.9349 0.553909 14.7936C0.412702 14.6524 0.333374 14.4608 0.333374 14.2611V1.62192C0.333374 1.42219 0.412702 1.23064 0.553909 1.08941C0.695115 0.948181 0.886632 0.868835 1.08633 0.868835H13.7159C13.9156 0.868835 14.1071 0.948181 14.2483 1.08941C14.3895 1.23064 14.4688 1.42219 14.4688 1.62192V10.2623C14.4704 10.3923 14.4383 10.5206 14.3756 10.6345C14.3129 10.7484 14.2217 10.8442 14.111 10.9124C14.0003 10.9807 13.8739 11.0191 13.7439 11.0239C13.614 11.0288 13.485 10.9999 13.3695 10.94L9.42906 8.96947C9.2883 8.89971 9.12925 8.87572 8.97418 8.90087C8.81912 8.92603 8.6758 8.99906 8.5643 9.10975C8.4528 9.22043 8.37871 9.36322 8.35241 9.51813C8.3261 9.67303 8.34889 9.83228 8.41759 9.97358Z" fill="#1a1a1a"/>
<path d="M116.122 5.71366H118.223L115.515 13.9423C115.231 14.831 114.762 15.215 114.099 15.215C113.437 15.215 112.967 14.831 112.644 13.9599L111.007 9.44141L109.368 13.9599C109.047 14.8284 108.6 15.215 107.935 15.215C107.27 15.215 106.803 14.831 106.52 13.9423L103.831 5.71366H106.013L108.056 11.9391L109.732 7.42064C110.016 6.6525 110.44 6.32867 111.047 6.32867C111.655 6.32867 112.079 6.6525 112.36 7.42064L114.059 12.0119L116.122 5.71366Z" fill="#1a1a1a"/>
<path d="M118.803 13.561C118.84 13.5613 118.876 13.5541 118.911 13.5399C118.945 13.5256 118.975 13.5047 119.001 13.4782C119.028 13.4529 119.049 13.4225 119.063 13.3888C119.077 13.3552 119.084 13.3189 119.084 13.2824C119.085 13.245 119.078 13.2079 119.063 13.1734C119.049 13.1389 119.028 13.1076 119.001 13.0816C118.976 13.0543 118.945 13.0326 118.911 13.0179C118.877 13.0032 118.84 12.9958 118.803 12.9962C118.766 12.9948 118.728 13.0017 118.694 13.0165C118.66 13.0312 118.629 13.0535 118.605 13.0816C118.578 13.1076 118.557 13.1389 118.542 13.1734C118.528 13.2079 118.521 13.245 118.522 13.2824C118.523 13.3563 118.553 13.4268 118.606 13.4788C118.658 13.5309 118.729 13.5604 118.803 13.561ZM118.223 14.422V12.6975H118.775C118.94 12.6895 119.102 12.7473 119.225 12.8581C119.282 12.9116 119.326 12.9767 119.356 13.0491C119.385 13.1214 119.399 13.1993 119.395 13.2774C119.397 13.3855 119.367 13.4919 119.31 13.5839C119.253 13.6759 119.171 13.7498 119.074 13.797L119.468 14.422H119.114L118.758 13.8597H118.522V14.422H118.223ZM118.76 14.899C118.993 14.9014 119.222 14.8397 119.423 14.7208C119.722 14.5354 119.939 14.2417 120.027 13.9009C120.115 13.56 120.069 13.1982 119.897 12.8908C119.784 12.6897 119.621 12.5218 119.423 12.4038C119.223 12.2854 118.994 12.223 118.762 12.223C118.529 12.223 118.3 12.2854 118.1 12.4038C117.902 12.5205 117.739 12.6888 117.628 12.8908C117.515 13.0963 117.455 13.3274 117.455 13.5623C117.455 13.7971 117.515 14.0282 117.628 14.2338C117.741 14.4348 117.905 14.6027 118.103 14.7208C118.302 14.8387 118.529 14.9003 118.76 14.899ZM118.76 15.2153C118.47 15.2135 118.185 15.1357 117.934 14.9897C117.683 14.8437 117.475 14.6345 117.33 14.383C117.184 14.1315 117.108 13.8464 117.107 13.556C117.106 13.2656 117.181 12.98 117.325 12.7276C117.507 12.4109 117.789 12.1633 118.126 12.0234C118.464 11.8836 118.838 11.8593 119.191 11.9544C119.544 12.0495 119.856 12.2586 120.077 12.5492C120.299 12.8398 120.418 13.1955 120.417 13.561C120.42 13.7794 120.38 13.9963 120.298 14.1987C120.215 14.4011 120.094 14.5849 119.939 14.7392C119.784 14.8936 119.6 15.0152 119.398 15.097C119.195 15.1788 118.979 15.219 118.76 15.2153Z" fill="#1a1a1a"/>
</svg>
